<?xml version="1.0" encoding="UTF-8"?>
<svg enable-background="new 0 0 150 150" version="1.1" viewBox="0 0 150 150" xml:space="preserve" xmlns="http://www.w3.org/2000/svg">
	<path d="M15,30h120c8.284,0,15-6.716,15-15s-6.716-15-15-15H15C6.716,0,0,6.716,0,15S6.716,30,15,30z"/>
	<path d="M135,60H15C6.716,60,0,66.716,0,75s6.716,15,15,15h120c8.284,0,15-6.716,15-15S143.284,60,135,60z"/>
	<path d="m135 120h-120c-8.284 0-15 6.716-15 15s6.716 15 15 15h120c8.284 0 15-6.716 15-15s-6.716-15-15-15z"/>
</svg>
